<svg width="18" height="18" viewBox="0 0 18 18" fill="none" xmlns="http://www.w3.org/2000/svg">
<path d="M2.37744 5.57996L8.99994 9.41246L15.5774 5.60246M8.99994 16.2075V9.40496" stroke="#DB9600" stroke-width="1.5" stroke-linecap="round" stroke-linejoin="round"/>
<path d="M7.44748 1.86L3.44248 4.0875C2.53498 4.59 1.79248 5.85 1.79248 6.885V11.1225C1.79248 12.1575 2.53498 13.4175 3.44248 13.92L7.44748 16.1475C8.30248 16.62 9.70498 16.62 10.56 16.1475L14.565 13.92C15.4725 13.4175 16.215 12.1575 16.215 11.1225V6.885C16.215 5.85 15.4725 4.59 14.565 4.0875L10.56 1.86C9.69748 1.38 8.30248 1.38 7.44748 1.86Z" stroke="#DB9600" stroke-width="1.5" stroke-linecap="round" stroke-linejoin="round"/>
<path d="M12.7499 9.92995V7.18495L5.63245 3.07495" stroke="#DB9600" stroke-width="1.5" stroke-linecap="round" stroke-linejoin="round"/>
</svg>
