<svg width="18" height="18" viewBox="0 0 18 18" fill="none" xmlns="http://www.w3.org/2000/svg">
<path d="M9.37504 16.5H3.06004C2.19004 16.5 1.47754 15.8025 1.47754 14.9475V3.81752C1.47754 1.85252 2.94004 0.960018 4.73254 1.83752L8.06254 3.47252C8.78254 3.82502 9.37504 4.76252 9.37504 5.55752V16.5ZM9.37504 16.5H14.1075C15.7275 16.5 16.4775 15.75 16.4775 14.13V11.295C16.4775 11.2425 16.4775 11.1975 16.47 11.1525C16.425 9.71252 15.615 9.20252 14.625 8.98502L13.1025 8.64752L9.72754 7.89002L9.37504 7.81502V16.5ZM4.12504 6.75002H6.72754M4.12504 9.75002H6.72754" stroke="#DB9600" stroke-width="1.5" stroke-linecap="round" stroke-linejoin="round"/>
<path d="M13.1025 8.64739V11.0624M13.1025 8.64739L9.72754 7.88989V11.0624C9.72754 11.9924 10.485 12.7499 11.415 12.7499C12.345 12.7499 13.1025 11.9924 13.1025 11.0624M13.1025 8.64739L14.625 8.98489C15.615 9.20239 16.425 9.71239 16.47 11.1524C16.4472 11.5829 16.2604 11.9884 15.948 12.2855C15.6355 12.5826 15.2212 12.7488 14.79 12.7499C13.86 12.7499 13.1025 11.9924 13.1025 11.0624" stroke="#DB9600" stroke-width="1.5" stroke-linecap="round" stroke-linejoin="round"/>
</svg>
