<svg width="18" height="18" viewBox="0 0 18 18" fill="none" xmlns="http://www.w3.org/2000/svg">
<path d="M9 6V1.5M9 1.5L7.5 3M9 1.5L10.5 3" stroke="#DB9600" stroke-width="1.5" stroke-linecap="round" stroke-linejoin="round"/>
<path d="M3.75 9.00003V7.50003C3.75 5.99253 3.75 4.74753 6 4.53003M14.25 9.00003V7.50003C14.25 5.99253 14.25 4.74753 12 4.53003M5.25 9.00003C2.25 9.00003 2.25 10.3425 2.25 12V12.75C2.25 14.82 2.25 16.5 6 16.5H12C15 16.5 15.75 14.82 15.75 12.75V12C15.75 10.3425 15.75 9.00003 12.75 9.00003C12 9.00003 11.79 9.15753 11.4 9.45003L10.635 10.26C10.4247 10.4837 10.1708 10.662 9.88894 10.7839C9.60711 10.9058 9.3033 10.9686 8.99625 10.9686C8.6892 10.9686 8.38539 10.9058 8.10356 10.7839C7.82172 10.662 7.56782 10.4837 7.3575 10.26L6.6 9.45003C6.21 9.15753 6 9.00003 5.25 9.00003Z" stroke="#DB9600" stroke-width="1.5" stroke-miterlimit="10" stroke-linecap="round" stroke-linejoin="round"/>
</svg>
