<svg width="18" height="18" viewBox="0 0 18 18" fill="none" xmlns="http://www.w3.org/2000/svg">
<path d="M1.93498 14.2583L1.91998 14.2733C1.71748 13.8308 1.58998 13.3283 1.53748 12.7733C1.58998 13.3208 1.73248 13.8158 1.93498 14.2583ZM6.75073 7.78582C7.22414 7.78582 7.67816 7.59776 8.01291 7.26301C8.34766 6.92825 8.53572 6.47423 8.53572 6.00082C8.53572 5.52741 8.34766 5.07339 8.01291 4.73863C7.67816 4.40388 7.22414 4.21582 6.75073 4.21582C6.27731 4.21582 5.82329 4.40388 5.48854 4.73863C5.15379 5.07339 4.96573 5.52741 4.96573 6.00082C4.96573 6.47423 5.15379 6.92825 5.48854 7.26301C5.82329 7.59776 6.27731 7.78582 6.75073 7.78582Z" fill="#DB9600"/>
<path d="M11.9283 1.71436H5.64327C2.91327 1.71436 1.28577 3.34186 1.28577 6.07186V12.3569C1.28577 13.1744 1.42827 13.8869 1.70577 14.4869C2.35077 15.9119 3.73077 16.7144 5.64327 16.7144H11.9283C14.6583 16.7144 16.2858 15.0869 16.2858 12.3569V6.07186C16.2858 3.34186 14.6583 1.71436 11.9283 1.71436ZM15.0633 9.58936C14.4783 9.08686 13.5333 9.08686 12.9483 9.58936L9.82827 12.2669C9.24327 12.7694 8.29827 12.7694 7.71327 12.2669L7.45827 12.0569C6.92577 11.5919 6.07827 11.5469 5.47827 11.9519L2.67327 13.8344C2.50827 13.4144 2.41077 12.9269 2.41077 12.3569V6.07186C2.41077 3.95686 3.52827 2.83936 5.64327 2.83936H11.9283C14.0433 2.83936 15.1608 3.95686 15.1608 6.07186V9.67185L15.0633 9.58936Z" fill="#DB9600"/>
</svg>
