<svg width="18" height="18" viewBox="0 0 18 18" fill="none" xmlns="http://www.w3.org/2000/svg">
<path d="M9.71875 9.71875C9.71875 9.94125 9.65277 10.1588 9.52916 10.3438C9.40554 10.5288 9.22984 10.673 9.02427 10.7581C8.81871 10.8433 8.59251 10.8655 8.37428 10.8221C8.15605 10.7787 7.95559 10.6716 7.79826 10.5142C7.64092 10.3569 7.53378 10.1565 7.49037 9.93823C7.44696 9.72 7.46924 9.4938 7.55439 9.28823C7.63954 9.08266 7.78373 8.90696 7.96874 8.78335C8.15374 8.65973 8.37125 8.59375 8.59375 8.59375C8.89212 8.59375 9.17827 8.71228 9.38925 8.92325C9.60023 9.13423 9.71875 9.42038 9.71875 9.71875ZM16.1875 8.59375C16.1875 10.0957 15.7421 11.5638 14.9077 12.8126C14.0733 14.0614 12.8873 15.0347 11.4998 15.6095C10.1122 16.1842 8.58533 16.3346 7.11229 16.0416C5.63924 15.7486 4.28617 15.0253 3.22416 13.9633C2.16216 12.9013 1.43892 11.5483 1.14592 10.0752C0.852909 8.60217 1.00329 7.07532 1.57804 5.68775C2.1528 4.30017 3.12611 3.11419 4.37489 2.27978C5.62368 1.44537 7.09185 1 8.59375 1C10.6071 1.00223 12.5373 1.803 13.9609 3.22662C15.3845 4.65024 16.1853 6.58045 16.1875 8.59375ZM11.234 10.5625H14.1611C14.2166 10.4071 14.2659 10.2482 14.3081 10.0872C12.783 8.58978 10.7311 7.75084 8.59375 7.75084C6.45645 7.75084 4.40453 8.58978 2.87946 10.0872C2.92164 10.2484 2.97063 10.4069 3.02641 10.5625H5.95352C6.23985 10.5633 6.51917 10.6511 6.75439 10.8144C6.98961 10.9776 7.16961 11.2086 7.27047 11.4766L8.39969 14.4951C8.46438 14.4951 8.52836 14.5 8.59375 14.5C8.65914 14.5 8.72172 14.5 8.785 14.4951L9.91704 11.4716C10.0189 11.2047 10.1992 10.9749 10.4344 10.8126C10.6695 10.6503 10.9483 10.5631 11.234 10.5625ZM2.71633 8.01227C4.41436 6.74631 6.47575 6.06245 8.59375 6.06245C10.7118 6.06245 12.7731 6.74631 14.4712 8.01227C14.3266 6.55389 13.6449 5.20136 12.5587 4.21754C11.4725 3.23371 10.0593 2.68885 8.59375 2.68885C7.12822 2.68885 5.71503 3.23371 4.62882 4.21754C3.54261 5.20136 2.86095 6.55389 2.71633 8.01227ZM6.44852 14.095L5.75875 12.25H3.96016C4.61178 13.0743 5.47045 13.711 6.44852 14.095ZM13.2273 12.25H11.4288L10.7369 14.0957C11.716 13.7121 12.5755 13.0751 13.2273 12.25Z" fill="#DB9600"/>
</svg>
