<svg width="18" height="18" viewBox="0 0 18 18" fill="none" xmlns="http://www.w3.org/2000/svg">
<path d="M11.25 1.5V9C11.25 9.825 10.575 10.5 9.75 10.5H1.5V4.5C1.5 2.8425 2.8425 1.5 4.5 1.5H11.25Z" stroke="#DB9600" stroke-width="1.5" stroke-linecap="round" stroke-linejoin="round"/>
<path d="M16.5 10.5V12.75C16.5 13.995 15.495 15 14.25 15H13.5C13.5 14.175 12.825 13.5 12 13.5C11.175 13.5 10.5 14.175 10.5 15H7.5C7.5 14.175 6.825 13.5 6 13.5C5.175 13.5 4.5 14.175 4.5 15H3.75C2.505 15 1.5 13.995 1.5 12.75V10.5H9.75C10.575 10.5 11.25 9.825 11.25 9V3.75H12.63C13.17 3.75 13.665 4.0425 13.935 4.5075L15.2175 6.75H14.25C13.8375 6.75 13.5 7.0875 13.5 7.5V9.75C13.5 10.1625 13.8375 10.5 14.25 10.5H16.5Z" stroke="#DB9600" stroke-width="1.5" stroke-linecap="round" stroke-linejoin="round"/>
<path d="M6 16.5C6.39782 16.5 6.77936 16.342 7.06066 16.0607C7.34196 15.7794 7.5 15.3978 7.5 15C7.5 14.6022 7.34196 14.2206 7.06066 13.9393C6.77936 13.658 6.39782 13.5 6 13.5C5.60218 13.5 5.22064 13.658 4.93934 13.9393C4.65804 14.2206 4.5 14.6022 4.5 15C4.5 15.3978 4.65804 15.7794 4.93934 16.0607C5.22064 16.342 5.60218 16.5 6 16.5ZM12 16.5C12.3978 16.5 12.7794 16.342 13.0607 16.0607C13.342 15.7794 13.5 15.3978 13.5 15C13.5 14.6022 13.342 14.2206 13.0607 13.9393C12.7794 13.658 12.3978 13.5 12 13.5C11.6022 13.5 11.2206 13.658 10.9393 13.9393C10.658 14.2206 10.5 14.6022 10.5 15C10.5 15.3978 10.658 15.7794 10.9393 16.0607C11.2206 16.342 11.6022 16.5 12 16.5ZM16.5 9V10.5H14.25C13.8375 10.5 13.5 10.1625 13.5 9.75V7.5C13.5 7.0875 13.8375 6.75 14.25 6.75H15.2175L16.5 9Z" stroke="#DB9600" stroke-width="1.5" stroke-linecap="round" stroke-linejoin="round"/>
</svg>
